<?xml version="1.0" encoding="iso-8859-1"?>
<!-- Generator: Adobe Illustrator 19.0.0, SVG Export Plug-In . SVG Version: 6.00 Build 0)  -->
<svg version="1.1" id="Capa_1" xmlns="http://www.w3.org/2000/svg" xmlns:xlink="http://www.w3.org/1999/xlink" x="0px" y="0px"
	 viewBox="0 0 512 512" style="enable-background:new 0 0 512 512;fill: rgb(254, 231, 21);" xml:space="preserve">
<g>
	<g>
		<path d="M190,349c-5.52,0-10,4.48-10,10c0,5.52,4.48,10,10,10s10-4.48,10-10C200,353.48,195.52,349,190,349z"/>
	</g>
</g>
<g>
	<g>
		<path d="M130,289h-10v-40h10c5.514,0,10,4.486,10,10c0,5.523,4.477,10,10,10s10-4.477,10-10c0-16.542-13.458-30-30-30h-10v-10
			c0-5.523-4.477-10-10-10s-10,4.477-10,10v10H90c-16.542,0-30,13.458-30,30v20c0,16.542,13.458,30,30,30h10v40H90
			c-5.514,0-10-4.486-10-10c0-5.523-4.477-10-10-10s-10,4.477-10,10c0,16.542,13.458,30,30,30h10v10c0,5.523,4.477,10,10,10
			s10-4.477,10-10v-10h10c16.542,0,30-13.458,30-30v-20C160,302.458,146.542,289,130,289z M100,289H90c-5.514,0-10-4.486-10-10v-20
			c0-5.514,4.486-10,10-10h10V289z M140,339c0,5.514-4.486,10-10,10h-10v-40h10c5.514,0,10,4.486,10,10V339z"/>
	</g>
</g>
<g>
	<g>
		<path d="M482,143h-10v-30c0-8.01-3.121-15.543-8.789-21.212c-3.551-3.551-7.835-6.101-12.508-7.511
			c-2.774-9.108-9.772-16.389-18.703-19.557V30c0-8.01-3.121-15.543-8.789-21.211C417.543,3.121,410.01,0,402,0
			c-16.542,0-30,13.458-30,30v34.72c-11.639,4.128-20,15.243-20,28.28v50H30c-16.542,0-30,13.458-30,30v249
			c0,16.542,13.458,30,30,30h339.988l22.088,33.141L392,501.955c-0.025,5.523,4.432,10.02,9.955,10.045c0.016,0,0.03,0,0.046,0
			c5.501,0,9.974-4.448,9.999-9.955l0.077-17.133L434.012,452H482c16.542,0,30-13.458,30-30V173C512,156.458,498.542,143,482,143z
			 M30,432c-5.514,0-10-4.486-10-10V173c0-5.514,4.486-10,10-10h322v66H190c-5.523,0-10,4.477-10,10s4.477,10,10,10h162v40H190
			c-5.523,0-10,4.477-10,10s4.477,10,10,10h162v40H230c-5.523,0-10,4.477-10,10s4.477,10,10,10h122v25.78
			c0,12.462,2.6,25.66,7.105,37.22H30z M432,113c0-5.514,4.486-10,10-10c2.668,0,5.179,1.041,7.068,2.931
			c1.891,1.891,2.932,4.401,2.932,7.069v76h-20V113z M392,30c0-5.514,4.486-10,10-10c2.668,0,5.179,1.041,7.068,2.931
			C410.959,24.821,412,27.332,412,30v33h-20V30z M372,93c0-5.514,4.486-10,10-10h40c2.758,0,5.258,1.122,7.069,2.934
			c-7.119,3.415-12.686,9.559-15.349,17.066H372V93z M372,123h40v20h-40V123z M432,394.78c0,14.619-4.583,30.982-11.676,41.687
			c-0.055,0.083-0.108,0.166-0.16,0.25L402,463.969l-18.164-27.252c-0.052-0.084-0.105-0.167-0.16-0.25
			C376.583,425.762,372,409.398,372,394.78V389h60V394.78z M432,369h-60V163h40v56c0,13.036,8.361,24.152,20,28.28V369z M432,219
			v-10h20v10c0,5.514-4.486,10-10,10C436.486,229,432,224.514,432,219z M492,422c0,5.514-4.486,10-10,10h-37.105
			C449.4,420.44,452,407.242,452,394.78v-147.5c11.639-4.128,20-15.243,20-28.28v-56h10c5.514,0,10,4.486,10,10V422z"/>
	</g>
</g>
<g>
	<g>
		<path d="M402,249c-5.523,0-10,4.477-10,10v80c0,5.523,4.477,10,10,10s10-4.477,10-10v-80C412,253.477,407.523,249,402,249z"/>
	</g>
</g>
<g>
</g>
<g>
</g>
<g>
</g>
<g>
</g>
<g>
</g>
<g>
</g>
<g>
</g>
<g>
</g>
<g>
</g>
<g>
</g>
<g>
</g>
<g>
</g>
<g>
</g>
<g>
</g>
<g>
</g>
</svg>
