<svg style="fill: rgb(254, 231, 21);" id="_x33_0" enable-background="new 0 0 64 64" height="512" viewBox="0 0 64 64" width="512" xmlns="http://www.w3.org/2000/svg"><g><circle cx="36" cy="18" r="1"/><path d="m61 33h-22c-1.103 0-2 .897-2 2v.526c-1.229-.859-2.573-1.522-4-1.946v-2.58h3c2.343 0 4.301-1.627 4.84-3.806 2.413 2.406 5.679 3.806 9.16 3.806 7.168 0 13-5.832 13-13s-5.832-13-13-13c-2.669 0-5.239.825-7.405 2.33-1.14-3.663-4.562-6.33-8.595-6.33h-8c-4.962 0-9 4.038-9 9v10.07c0 4.56 2.869 8.699 7.138 10.3l.862.323v2.822c-.44.363-.835.769-1.21 1.192l-.476-.794c-1.078-1.797-3.05-2.913-5.145-2.913h-13.169c-2.206 0-4 1.794-4 4 0 1.744 1.128 3.214 2.688 3.761-.434.639-.688 1.41-.688 2.239 0 2.206 1.794 4 4 4h.556c-.344.591-.556 1.268-.556 2 0 2.206 1.794 4 4 4h.556c-.344.591-.556 1.268-.556 2 0 2.206 1.794 4 4 4h8v6h20v-6h10c1.474 0 2.75-.81 3.444-2h4.556c1.103 0 2-.897 2-2v-18c0-1.103-.897-2-2-2zm-14 2h2v2h-2zm4 0h2v2h-2zm-15-6h-5v4.158c-.659-.094-1.324-.158-2-.158h-2v-7.5l-3.066-2.3c-.585-.438-.934-1.136-.934-1.867 0-1.286 1.047-2.333 2.333-2.333h1.667v-4h12v1.395c0 .595.174 1.17.504 1.664l1.299 1.948c.129.194.197.418.197.651 0 .447-.248.848-.648 1.048l-.246.123c-.682.341-1.106 1.026-1.106 1.789v1.382h-2c-1.103 0-2-.897-2-2h-2c0 2.206 1.794 4 4 4h1.816c-.414 1.161-1.514 2-2.816 2zm15-20v-1.949c2.283.207 4.366 1.111 6.034 2.501l-1.377 1.377 1.414 1.414 1.377-1.377c1.391 1.667 2.294 3.751 2.501 6.034h-1.949v2h1.949c-.207 2.283-1.111 4.366-2.501 6.034l-1.377-1.377-1.414 1.414 1.377 1.377c-1.667 1.391-3.751 2.294-6.034 2.501v-1.949h-2v1.938c-2.237-.203-4.328-1.081-6.027-2.497l1.37-1.37-1.414-1.414-1.376 1.376c-.194-.233-.377-.478-.553-.729v-.686l.246-.123c1.082-.541 1.754-1.628 1.754-2.837 0-.628-.184-1.237-.533-1.76l-1.299-1.949c-.11-.165-.168-.356-.168-.554v-1.395h4c1.103 0 2-.897 2-2v-1c0-1.654-1.346-3-3-3h-.308c1.569-1.101 3.393-1.78 5.308-1.954v1.954zm-7 2c.551 0 1 .449 1 1v1h-16v-1c0-.551.449-1 1-1zm-18-8h8c3.519 0 6.432 2.613 6.92 6h-10.92c-1.654 0-3 1.346-3 3v1h-8v-3c0-3.86 3.14-7 7-7zm-1.16 25.497c-3.493-1.31-5.84-4.697-5.84-8.427v-5.07h6v2.013c-2.234.171-4 2.043-4 4.321 0 1.356.648 2.652 1.733 3.466l2.267 1.7v2.057zm1.524 6.503h2.636c2.975 0 5.796 1.095 8 3.073v10.927h-.436c-3.068 0-5.564-2.496-5.564-5.564v-.607c0-2.091-.814-4.057-2.293-5.536l-1.414 1.414c1.101 1.101 1.707 2.564 1.707 4.122v.607c0 4.17 3.394 7.564 7.564 7.564h8.436v4h-9c-7.168 0-13-5.832-13-13 0-2.714 1.258-5.302 3.364-7zm26.636 9.586c0 1.241-.577 2.39-1.533 3.141-.647-.462-1.43-.727-2.263-.727-.791 0-1.544.235-2.184.669.102-1.737 1.304-3.219 3.01-3.646l2.97-.742zm-38 10.414c-1.103 0-2-.897-2-2s.897-2 2-2h2v-2h-6c-1.103 0-2-.897-2-2s.897-2 2-2h4v-2h-8c-1.103 0-2-.897-2-2s.897-2 2-2h6v-2h-8c-1.103 0-2-.897-2-2s.897-2 2-2h13.169c1.397 0 2.711.744 3.43 1.942l.914 1.523c-.969 1.665-1.513 3.572-1.513 5.535 0 2.713.735 5.253 2 7.451v5.549zm26 6h-16v-8.837c2.742 2.966 6.652 4.837 11 4.837h5zm12-6h-6v-4.586l.856-.856c.355-.354.846-.558 1.348-.558.727 0 1.38.404 1.705 1.054l.473.946h1.618c1.103 0 2 .897 2 2s-.897 2-2 2zm8-2h-4c0-2.189-1.769-3.969-3.952-3.995 1.225-1.122 1.952-2.713 1.952-4.419v-3.867l-5.456 1.364c-2.675.669-4.544 3.063-4.544 5.821v1.096h-6v-14h6v4h10v-4h6z"/><path d="m1 3h8v2h-8z"/><path d="m11 3h4v2h-4z"/><path d="m1 11h6v2h-6z"/><path d="m9 11h6v2h-6z"/><path d="m7 7h6v2h-6z"/><path d="m5 15h10v2h-10z"/><path d="m1 19h14v2h-14z"/><path d="m49 15.184c-1.161.414-2 1.514-2 2.816 0 1.654 1.346 3 3 3s3-1.346 3-3c0-.462-.113-.894-.301-1.285l2.008-2.008-1.414-1.414-2.008 2.008c-.093-.044-.188-.082-.285-.116v-4.185h-2zm1 3.816c-.551 0-1-.449-1-1s.449-1 1-1 1 .449 1 1-.449 1-1 1z"/></g></svg>