<?xml version="1.0" encoding="iso-8859-1"?>
<!-- Generator: Adobe Illustrator 19.0.0, SVG Export Plug-In . SVG Version: 6.00 Build 0)  -->
<svg version="1.1" id="Capa_1" xmlns="http://www.w3.org/2000/svg" xmlns:xlink="http://www.w3.org/1999/xlink" x="0px" y="0px"
	 viewBox="0 0 496 496" style="enable-background:new 0 0 496 496;fill: rgb(254, 231, 21);" xml:space="preserve">
<g>
	<g>
		<g>
			<path d="M0,408c0,22.056,17.944,40,40,40h104v32h-32v16h256v-16h-32v-32h120c22.056,0,40-17.944,40-40v-24H0V408z M320,480H160
				v-32h160V480z M16,400h464v8c0,13.232-10.768,24-24,24H40c-13.232,0-24-10.768-24-24V400z"/>
			<path d="M456,72v16c13.232,0,24,10.768,24,24v256h16V112C496,89.944,478.056,72,456,72z"/>
			<path d="M16,112c0-13.232,10.768-24,24-24h176V72H40C17.944,72,0,89.944,0,112v256h16V112z"/>
			<path d="M336,208c57.344,0,104-46.656,104-104S393.344,0,336,0S232,46.656,232,104S278.656,208,336,208z M336,16
				c48.52,0,88,39.48,88,88s-39.48,88-88,88c-48.52,0-88-39.48-88-88S287.48,16,336,16z"/>
			<path d="M344,144h-16c-8.824,0-16-7.176-16-16h-16c0,17.648,14.352,32,32,32v16h16v-16c17.648,0,32-14.352,32-32
				s-14.352-32-32-32h-16c-8.824,0-16-7.176-16-16s7.176-16,16-16h16c8.824,0,16,7.176,16,16h16c0-17.648-14.352-32-32-32V32h-16v16
				c-17.648,0-32,14.352-32,32s14.352,32,32,32h16c8.824,0,16,7.176,16,16S352.824,144,344,144z"/>
			<path d="M72,160h152v-16H72c-13.232,0-24,10.768-24,24v160c0,13.232,10.768,24,24,24h256c13.232,0,24-10.768,24-24V224h-16v104
				c0,4.416-3.584,8-8,8H72c-4.416,0-8-3.584-8-8V224h224v-16H64v-16h176v-16H64v-8C64,163.584,67.584,160,72,160z"/>
			<path d="M136,267.056c-5.872-6.72-14.392-11.056-24-11.056c-17.648,0-32,14.352-32,32s14.352,32,32,32
				c9.608,0,18.128-4.336,24-11.056c5.872,6.72,14.392,11.056,24,11.056c17.648,0,32-14.352,32-32s-14.352-32-32-32
				C150.392,256,141.872,260.336,136,267.056z M112,304c-8.824,0-16-7.176-16-16c0-8.824,7.176-16,16-16c8.824,0,16,7.176,16,16
				C128,296.824,120.824,304,112,304z M176,288c0,8.824-7.176,16-16,16c-8.824,0-16-7.176-16-16c0-8.824,7.176-16,16-16
				C168.824,272,176,279.176,176,288z"/>
		</g>
	</g>
</g>
<g>
</g>
<g>
</g>
<g>
</g>
<g>
</g>
<g>
</g>
<g>
</g>
<g>
</g>
<g>
</g>
<g>
</g>
<g>
</g>
<g>
</g>
<g>
</g>
<g>
</g>
<g>
</g>
<g>
</g>
</svg>
