<svg id="Capa_1" style="fill: rgb(254, 231, 21);" enable-background="new 0 0 512 512" height="512" viewBox="0 0 512 512" width="512" xmlns="http://www.w3.org/2000/svg"><g><path d="m149.504 381.28h-51.464c-45.794 0-83.05-37.256-83.05-83.05 0-20.693 7.655-40.516 21.555-55.82 2.783-3.064 2.555-7.804-.508-10.588-3.063-2.782-7.803-2.556-10.588.509-16.411 18.068-25.449 41.472-25.449 65.899 0 54.06 43.98 98.041 98.04 98.041h51.464c4.14 0 7.495-3.356 7.495-7.495s-3.355-7.496-7.495-7.496z"/><path d="m497.572 234.462v-33.848c0-13.349-3.025-26.136-8.992-38.007-1.859-3.698-6.366-5.189-10.063-3.33-3.699 1.859-5.19 6.365-3.331 10.064 4.907 9.762 7.396 20.284 7.396 31.274v29.29c-.353-.012-14.991-.027-14.991-.027v-28.502c0-14.838-6.098-29.361-16.729-39.844-10.55-10.404-24.376-16.037-38.971-15.814-14.701.206-28.192 5.993-38.34 16.372l-12.079-9.022c13.128-14.053 32.001-22.346 51.216-22.346 15.184 0 29.632 4.807 41.782 13.9 3.317 2.481 8.013 1.805 10.492-1.51 2.48-3.314 1.804-8.012-1.51-10.492-14.764-11.048-32.319-16.888-50.765-16.888-25.22 0-48.982 11.127-65.195 30.526-2.003 2.394-2.941 5.551-2.578 8.661.366 3.129 2.023 6.005 4.547 7.89l17.648 13.181c4.788 3.576 11.607 2.857 15.517-1.638 7.52-8.637 17.988-13.483 29.476-13.644 10.519-.164 20.563 3.935 28.234 11.499 7.794 7.685 12.264 18.317 12.264 29.17v28.502h-23.489c-18.381-18.882-43.899-29.687-70.273-29.687h-237-23.798c-15.348 0-30.047 3.449-43.689 10.251-3.705 1.847-5.211 6.348-3.363 10.052 1.312 2.631 3.96 4.152 6.714 4.152 1.123 0 2.265-.254 3.339-.789 11.546-5.757 23.995-8.676 37-8.676h23.798 237c17.198 0 33.48 5.139 47.224 14.696h-50.403c-16.807 0-30.481 13.674-30.481 30.481v81.977c0 16.807 13.674 30.481 30.481 30.481h39.702c-11.28 5.524-23.754 8.465-36.525 8.465h-173.774c-4.14 0-7.495 3.356-7.495 7.495s3.355 7.495 7.495 7.495h173.775c23.356 0 45.875-8.331 63.6-23.456h59.081c16.807 0 30.481-13.674 30.481-30.481v-81.977c0-10.92-5.775-20.513-14.428-25.896zm-.563 107.872c0 8.542-6.949 15.49-15.49 15.49h-125.859c-8.542 0-15.49-6.949-15.49-15.49v-81.977c0-8.542 6.949-15.49 15.49-15.49h125.859c8.542 0 15.49 6.949 15.49 15.49z"/><path d="m438.211 261.81c-6.224-5.573-14.583-8.24-22.944-7.315-13.403 1.481-24.289 12.271-25.883 25.656-1.314 11.021 3.428 21.516 12.435 27.749v11.095c0 5.786 4.707 10.493 10.493 10.493h12.555c5.786 0 10.493-4.707 10.493-10.493v-11.096c7.948-5.506 12.648-14.431 12.648-24.169.001-8.354-3.57-16.343-9.797-21.92zm-12.031 34.189c-3.584 2.225-5.81 6.268-5.81 10.551v7.948h-3.56v-7.949c0-4.282-2.229-8.326-5.816-10.553-4.825-2.997-7.402-8.389-6.724-14.072.779-6.536 6.097-11.806 12.645-12.529 4.184-.463 8.199.81 11.296 3.582 3.055 2.737 4.808 6.656 4.808 10.753-.001 5.026-2.557 9.612-6.839 12.269z"/><path d="m65.485 316.676c1.388 2.405 3.908 3.749 6.498 3.749 1.272 0 2.561-.324 3.741-1.006l13.688-7.903v15.805c0 4.139 3.355 7.495 7.495 7.495s7.495-3.356 7.495-7.495v-15.805l13.688 7.903c1.181.682 2.469 1.006 3.741 1.006 2.59 0 5.11-1.344 6.498-3.749 2.07-3.585.841-8.169-2.743-10.239l-13.688-7.903 13.688-7.903c3.585-2.07 4.813-6.654 2.743-10.239-2.07-3.586-6.656-4.814-10.239-2.743l-13.688 7.903v-15.806c0-4.139-3.355-7.495-7.495-7.495s-7.495 3.356-7.495 7.495v15.806l-13.688-7.903c-3.588-2.071-8.17-.842-10.239 2.743-2.07 3.585-.841 8.169 2.743 10.239l13.688 7.903-13.688 7.903c-3.584 2.07-4.813 6.654-2.743 10.239z"/><path d="m188.711 327.322v-15.806l13.689 7.903c1.181.682 2.469 1.006 3.741 1.006 2.59 0 5.11-1.345 6.498-3.749 2.07-3.585.841-8.169-2.743-10.239l-13.688-7.903 13.688-7.903c3.585-2.07 4.813-6.654 2.743-10.239-2.069-3.586-6.656-4.814-10.239-2.743l-13.689 7.903v-15.806c0-4.139-3.355-7.495-7.495-7.495s-7.495 3.356-7.495 7.495v15.806l-13.688-7.903c-3.588-2.071-8.17-.841-10.239 2.743-2.07 3.585-.841 8.169 2.743 10.239l13.688 7.903-13.688 7.903c-3.585 2.07-4.813 6.654-2.743 10.239 1.388 2.405 3.908 3.749 6.498 3.749 1.272 0 2.561-.324 3.741-1.006l13.688-7.903v15.805c0 4.139 3.355 7.495 7.495 7.495s7.495-3.354 7.495-7.494z"/><path d="m234.692 316.676c1.388 2.405 3.908 3.749 6.498 3.749 1.272 0 2.561-.324 3.741-1.006l13.688-7.903v15.805c0 4.139 3.355 7.495 7.495 7.495s7.495-3.356 7.495-7.495v-15.805l13.688 7.903c1.181.682 2.469 1.006 3.741 1.006 2.59 0 5.11-1.344 6.498-3.749 2.07-3.585.841-8.169-2.743-10.239l-13.688-7.903 13.688-7.903c3.585-2.07 4.813-6.654 2.743-10.239-2.07-3.586-6.656-4.814-10.239-2.743l-13.688 7.903v-15.806c0-4.139-3.355-7.495-7.495-7.495s-7.495 3.356-7.495 7.495v15.806l-13.688-7.903c-3.588-2.071-8.17-.842-10.239 2.743-2.07 3.585-.841 8.169 2.743 10.239l13.688 7.903-13.688 7.903c-3.584 2.07-4.813 6.654-2.743 10.239z"/></g></svg>