<svg id="Capa_1" style="fill: rgb(254, 231, 21);" enable-background="new 0 0 512 512" height="512" viewBox="0 0 512 512" width="512" xmlns="http://www.w3.org/2000/svg"><g><g><path d="m494.5 63.799h-156.543l-22.401-30.435c-2.346-3.187-6.109-5.09-10.066-5.09-3.958 0-7.721 1.903-10.067 5.09l-22.401 30.435h-224.802c-9.649 0-17.5 7.851-17.5 17.5v243.636h-18.22c-6.893 0-12.5 5.607-12.5 12.5v133.792c0 6.893 5.607 12.5 12.5 12.5h127.833c4.142 0 7.5-3.358 7.5-7.5s-3.358-7.5-7.5-7.5h-125.333v-128.793h190.06v128.792h-28.727c-4.142 0-7.5 3.358-7.5 7.5s3.358 7.5 7.5 7.5h31.227c6.893 0 12.5-5.607 12.5-12.5v-21.784h273.91c9.941 0 18.03-8.088 18.03-18.03v-350.113c0-9.65-7.851-17.5-17.5-17.5zm-189.011-18.808 38.869 52.808h-12.332c-6.893 0-12.5 5.607-12.5 12.5v109.338h-28.072v-109.338c0-6.893-5.607-12.5-12.5-12.5h-12.333zm-16.535 189.646h33.072c6.893 0 12.5-5.607 12.5-12.5v-26.958h104.245l-131.292 94.422c-1.189.855-2.789.856-3.98 0l-131.292-94.422h104.247v26.958c0 6.893 5.608 12.5 12.5 12.5zm-144.698-36.958v127.255h-98.536v-175.544h112.614c4.142 0 7.5-3.358 7.5-7.5s-3.358-7.5-7.5-7.5h-112.614v-53.091c0-1.378 1.122-2.5 2.5-2.5h213.761l-10.371 14.09c-2.811 3.818-3.228 8.819-1.088 13.05s6.414 6.859 11.155 6.859h14.777v21.591h-81.788c-4.142 0-7.5 3.358-7.5 7.5s3.358 7.5 7.5 7.5h81.788v30.789h-114.698c-9.649.001-17.5 7.852-17.5 17.501zm352.744 233.734c0 1.67-1.359 3.03-3.03 3.03h-273.91v-32.883h229.163c9.649 0 17.5-7.851 17.5-17.5v-57.778c0-4.142-3.358-7.5-7.5-7.5s-7.5 3.358-7.5 7.5v57.778c0 1.378-1.122 2.5-2.5 2.5h-229.163v-49.126c0-6.893-5.607-12.5-12.5-12.5h-48.304v-120.593l135.485 97.438c3.214 2.312 6.981 3.467 10.748 3.467s7.534-1.156 10.748-3.467l135.485-97.438v85.942c0 4.142 3.358 7.5 7.5 7.5s7.5-3.358 7.5-7.5v-92.604c0-9.649-7.851-17.5-17.5-17.5h-114.696v-30.789h162.474zm0-297.023h-162.474v-21.591h14.776c4.741 0 9.016-2.628 11.155-6.859s1.722-9.232-1.088-13.05l-10.371-14.091h145.502c1.378 0 2.5 1.122 2.5 2.5z"/><circle cx="76.253" cy="106.594" r="7.5"/><circle cx="100.253" cy="106.594" r="7.5"/><circle cx="124.253" cy="106.594" r="7.5"/><path d="m464.053 99.094h-41.066c-4.142 0-7.5 3.358-7.5 7.5s3.358 7.5 7.5 7.5h41.066c4.142 0 7.5-3.358 7.5-7.5s-3.358-7.5-7.5-7.5z"/><path d="m44.386 411.83h131.289c4.142 0 7.5-3.358 7.5-7.5s-3.358-7.5-7.5-7.5h-131.289c-4.142 0-7.5 3.358-7.5 7.5s3.358 7.5 7.5 7.5z"/><path d="m44.386 379.477h25.007c4.142 0 7.5-3.358 7.5-7.5s-3.358-7.5-7.5-7.5h-25.007c-4.142 0-7.5 3.358-7.5 7.5s3.358 7.5 7.5 7.5z"/><path d="m175.674 379.477c4.142 0 7.5-3.358 7.5-7.5s-3.358-7.5-7.5-7.5h-75.022c-4.142 0-7.5 3.358-7.5 7.5s3.358 7.5 7.5 7.5z"/><path d="m44.386 444.183h131.289c4.142 0 7.5-3.358 7.5-7.5s-3.358-7.5-7.5-7.5h-131.289c-4.142 0-7.5 3.358-7.5 7.5s3.358 7.5 7.5 7.5z"/><path d="m112 203.782h-36c-4.142 0-7.5 3.358-7.5 7.5s3.358 7.5 7.5 7.5h36c4.142 0 7.5-3.358 7.5-7.5s-3.358-7.5-7.5-7.5z"/><path d="m112 229.782h-36c-4.142 0-7.5 3.358-7.5 7.5s3.358 7.5 7.5 7.5h36c4.142 0 7.5-3.358 7.5-7.5s-3.358-7.5-7.5-7.5z"/><path d="m112 255.782h-36c-4.142 0-7.5 3.358-7.5 7.5s3.358 7.5 7.5 7.5h36c4.142 0 7.5-3.358 7.5-7.5s-3.358-7.5-7.5-7.5z"/><path d="m92 281.782h-16c-4.142 0-7.5 3.358-7.5 7.5s3.358 7.5 7.5 7.5h16c4.142 0 7.5-3.358 7.5-7.5s-3.358-7.5-7.5-7.5z"/></g></g></svg>